<?xml version="1.0" standalone="no"?>
<!DOCTYPE svg PUBLIC "-//W3C//DTD SVG 20010904//EN"
 "http://www.w3.org/TR/2001/REC-SVG-20010904/DTD/svg10.dtd">
<svg version="1.0" xmlns="http://www.w3.org/2000/svg"
 width="700.000000pt" height="700.000000pt" viewBox="0 0 700.000000 700.000000"
 preserveAspectRatio="xMidYMid meet">
<metadata>
Created by potrace 1.11, written by Peter Selinger 2001-2013
</metadata>
<g transform="translate(0.000000,700.000000) scale(0.100000,-0.100000)"
fill="#000000" stroke="none">
<path d="M3317 6344 c-1 -1 -40 -5 -87 -8 -320 -24 -645 -126 -925 -291 -287
-168 -574 -453 -748 -740 -106 -174 -209 -424 -243 -584 -3 -14 -7 -27 -9 -31
-5 -7 -34 -176 -43 -245 -9 -73 -8 -419 1 -498 8 -65 10 -81 22 -137 2 -14 6
-36 9 -50 28 -169 121 -419 225 -605 76 -137 121 -196 232 -310 60 -60 166
-169 236 -241 70 -73 313 -320 539 -550 227 -231 465 -474 530 -540 66 -67
282 -287 481 -490 l362 -369 918 1 c505 1 921 2 924 3 3 0 -562 569 -1255
1264 -1831 1834 -1763 1762 -1838 1920 -57 120 -72 190 -73 337 0 140 5 183
29 261 83 268 307 483 577 555 84 22 99 24 198 27 127 4 269 -27 386 -86 427
-212 586 -747 344 -1159 -48 -82 -88 -128 -309 -349 -113 -114 -216 -218 -228
-232 l-24 -25 461 -461 c254 -254 465 -461 470 -461 5 0 136 128 292 285 266
267 290 295 384 434 195 290 304 558 360 886 28 167 28 540 0 685 -3 14 -8 41
-11 60 -18 104 -82 321 -121 410 -49 111 -121 253 -154 303 -22 32 -39 60 -39
63 0 2 -35 50 -77 106 -101 136 -312 345 -443 440 -102 74 -250 168 -265 168
-4 0 -19 8 -33 18 -33 23 -225 103 -312 131 -73 23 -209 58 -255 65 -16 3 -59
10 -95 16 -86 14 -383 32 -393 24z"/>
<path d="M1565 1665 c0 -663 3 -1005 10 -1006 29 -3 2005 -3 2005 0 0 5 -2006
2011 -2011 2011 -2 0 -4 -452 -4 -1005z"/>
</g>
</svg>
