<svg id="Layer_1" data-name="Layer 1" xmlns="http://www.w3.org/2000/svg" width="1059.9" height="1059.9" viewBox="0 0 1059.9 1059.9"><title>Logo_Wordmark_Purple</title><g id="Logo_Purple_Wordmark" data-name="Logo Purple Wordmark"><path d="M538.9,735.4H328.8V525.3Zm76.6-148.6L603,574.3l-77.5-77.5-7-7.1L458.9,429a86.3,86.3,0,1,1,124.3-4l-.2.3c-1.9,2-3.9,3.9-5.9,5.8l-.3.3-42.1,42.1,97.1,97L690,512.2l11-15.4c.7-1,1.4-1.9,2-2.9a222.5,222.5,0,0,0,39.4-126.7c0-123.3-100-223.2-223.3-223.2S295.8,243.9,295.8,367.2a222.1,222.1,0,0,0,41.4,129.6l49,49.9,37.3,38,96.1,98,51.7,52.7H764.1Z" fill="#fff"/><path d="M219.9,781.7h41c22.7,0,31.5,2.9,39.9,9.4,10.7,8.5,15.9,22.4,15.9,35.9,0,15-7.7,37.2-32.2,41.3L319.7,913h-37L252,870h-.4v43H219.9Zm31.7,65.7h11.8c19.5,0,21.8-12.4,21.8-18.7,0-11.8-8.6-17.6-21.5-17.6H251.6Z" fill="#fff"/><path d="M422.6,881.1c-4.8,11-11.7,19.6-20.1,25.3a48,48,0,0,1-28,8.8A52.3,52.3,0,0,1,322.2,863c0-27.5,21.7-53,51.7-53s52,24.6,52.1,53.6a39.6,39.6,0,0,1-.7,8.1H351.4c1.7,11.7,11.5,18.7,23.1,18.7,9,0,13.8-4.1,17.9-9.3Zm-25.1-30.6c-1.3-6.1-7.4-17.6-23.4-17.6s-22.1,11.5-23.4,17.6Z" fill="#fff"/><path d="M606.9,810c36,0,53.3,28.4,53.3,52.6s-17.3,52.6-53.3,52.6-53.3-28.3-53.3-52.6S570.9,810,606.9,810Zm0,77.6c12.8,0,23.7-10.5,23.7-25s-10.9-24.9-23.7-24.9-23.7,10.5-23.7,24.9S594,887.6,606.9,887.6Z" fill="#fff"/><path d="M723.3,810c36,0,53.3,28.4,53.3,52.6s-17.3,52.6-53.3,52.6-53.4-28.3-53.4-52.6S687.2,810,723.3,810Zm0,77.6c12.8,0,23.7-10.5,23.7-25s-10.9-24.9-23.7-24.9-23.8,10.5-23.8,24.9S710.4,887.6,723.3,887.6Z" fill="#fff"/><path d="M825.3,813.4H840V836H826.4v77H794.7V836H781.2V813.4h14.7V779.5h29.4Z" fill="#fff"/><path d="M543,863.4c0,24.2-17.3,52.6-53.3,52.6s-52.9-27.8-53.3-51.9V781.9H466v81.5c0,14.4,10.9,24.9,23.7,24.9s23.7-10.5,23.7-24.9-10.8-25-23.7-25H474.8V810.8h16C526.1,811.3,543,839.4,543,863.4Z" fill="#fff"/></g></svg>